<svg xmlns="http://www.w3.org/2000/svg" version="1.1" xmlns:xlink="http://www.w3.org/1999/xlink" xmlns:svgjs="http://svgjs.dev/svgjs" width="1000" height="1125" viewBox="0 0 1000 1125"><g transform="matrix(1,0,0,1,1.7053025658242404e-13,0)"><svg viewBox="0 0 320 360" data-background-color="#080101" preserveAspectRatio="xMidYMid meet" height="1125" width="1000" xmlns="http://www.w3.org/2000/svg" xmlns:xlink="http://www.w3.org/1999/xlink"><g id="tight-bounds" transform="matrix(1,0,0,1,0,0)"><svg viewBox="0 0 320 360" height="360" width="320"><g><svg></svg></g><g><svg viewBox="0 0 320 360" height="360" width="320"><g><path xmlns="http://www.w3.org/2000/svg" d="M20.961 227.22l3.726 4.658-1.863-6.056c-0.466-2.795-3.726 0.466-1.863 1.398M25.153 224.425c1.397 2.329 2.795 4.658 2.795 6.987 0 3.261 2.795 4.658 5.123 5.589-3.261-3.726-5.124-13.974-7.918-12.576M204.017 26.929c7.918 0 15.371-0.932 23.756 0.931 20.495 5.124 37.729 15.371 49.374 29.811l32.606 52.169c1.397 13.042 4.192 27.482 3.726 43.319 3.261 0 2.795-4.658 6.521-5.59-3.726 9.316-5.59 20.961-6.521 34.469-2.329-7.453 0-18.632 0.466-24.687-3.261 5.124-5.124 1.397-5.124-0.932 0.466-3.726-1.397-3.261-2.795-4.658-5.124-4.658-8.384-9.782-12.11-17.7 2.329-6.055 2.795-14.905-4.658-19.563-2.329-1.397-5.124-3.726-6.521-7.453-1.863-5.124-5.124-11.179-4.193-19.097 0.466-2.329-6.987 5.124-11.179 1.863-18.166-12.576-36.332-27.016-58.224-39.127-11.645 0-20.029-4.192-24.221-9.316-3.726-4.658-0.932-10.713 4.658-11.179 3.261 0 6.987-0.932 9.782 0.932 0.466-1.863 2.329-4.192 4.657-4.192M157.904 16.215l0.932 0.466c4.658 0.932 6.987 7.453 12.11 5.124 0 3.261 0.466 6.521-0.466 8.85-1.397 3.726-5.59 3.726-8.85 3.726-31.208-1.863-49.374 11.179-68.471 22.358-5.124 3.261-10.713 5.59-14.906 9.782-20.029 18.632-41.921 35.866-47.045 70.335l-4.192 38.195c-0.466 4.192-5.124 8.384-4.192 13.508l3.26 22.824c-3.261-3.261-5.124 0.932-4.192 2.795 0.466 1.397 2.329 6.055 5.124 1.863 3.726 6.987 7.453 20.495 12.576 26.55 15.837 18.632 36.332 35.4 53.101 52.169 4.192-0.932 7.453-0.932 8.384-3.727 1.397 2.795-1.397 5.59-3.726 6.056 7.453 4.658 15.837 8.85 27.016 9.781 14.44 0.932 27.948 3.261 40.524 6.522 6.521-1.863 13.042-2.795 20.029-3.261 2.329 0 3.726-3.726 6.521-4.658l0.466-4.658c2.795 4.192 2.329-1.397 0.466-4.192 3.261 2.795 4.192 5.124 5.589 6.987 0-1.397 3.726-6.521 3.727-0.466l0.931-6.055c1.397-0.932 1.863 5.124 3.261 0.931 1.397-4.192 4.192-0.932 6.987-2.329-0.932 1.863-0.466 5.59 2.794 3.261l3.727-3.261c2.329 5.59 6.055 3.261 7.918 2.329 20.495-13.042 40.99-28.413 60.553-43.784l-0.466 6.055 2.329-7.453c2.329 2.329 4.192 0.466 5.124-0.931 2.795-4.658 6.521-9.316 12.577-13.508-7.453 20.029-16.303 35.866-27.482 48.908l-4.658 5.59c0 3.261-0.932 7.453-4.658 7.918-1.863 0.466-5.59-0.932-8.384 1.863-1.397 1.863 3.261 5.59-0.466 2.795-3.261-2.329-6.521 0-10.248 0.932-2.795 0.932 1.863 3.726 2.795 5.589 0.932 1.863 1.863 3.726 1.398 6.056l-5.124-5.59c-6.055 3.261-9.782 9.316-14.906 13.974-2.329 1.863-1.397 5.124-1.397 7.918-3.261 0-6.987-0.932-8.85 0.932-1.397 1.863-0.932 4.658-0.932 7.453-4.658-0.466-5.124-7.453-9.315-6.056-4.192 0.932-8.85 1.397-12.577 3.727 2.795 5.59-4.658 2.329-3.726 3.26-6.987-4.192-13.042-7.453-20.495-4.658-15.837-5.124-35.4-2.795-49.84-0.931 0-2.329 0.466-4.658-0.466-5.124-0.932 2.329-3.726 1.397-3.26 1.397-8.85-6.055-17.7-9.782-27.016-14.905-8.384 0.932-16.303-3.261-18.632-5.59-6.521-6.055-13.974-2.795-20.029-4.192-13.042-3.261-17.7-16.769-19.098-26.084-0.932-4.658-4.658-6.521-6.055-6.056-6.055-19.563-15.371-37.263-22.824-55.429-1.863-4.658-1.397-9.316-1.397-14.44 2.329 0.932 4.658 0.466 4.192-2.794-2.329-15.371-7.918-27.016-13.974-38.195 3.261-15.837 3.726-34.469 11.179-48.443 6.521-12.576 18.632-19.098 27.016-29.811 2.795-3.726 2.795-8.85 5.59-12.11 9.316-9.316 18.632-19.098 28.879-27.482 4.658-3.726 10.247 0 17.234-1.397 2.329-8.384 11.645-15.837 20.495-13.508 3.726 0.932 11.179-8.85 13.508-9.782 3.726-1.397 1.863 3.726 1.863 6.987 8.85-6.987 20.961-10.713 32.14-14.906" fill="#233565" fill-rule="nonzero" stroke="none" stroke-width="1" stroke-linecap="butt" stroke-linejoin="miter" stroke-miterlimit="10" stroke-dasharray="" stroke-dashoffset="0" font-family="none" font-weight="none" font-size="none" text-anchor="none" style="mix-blend-mode: normal" data-fill-palette-color="tertiary"></path></g><g transform="matrix(1,0,0,1,64,133.46118721461187)"><svg viewBox="0 0 192 93.07762557077625" height="93.07762557077625" width="192"><g><svg viewBox="0 0 192 93.07762557077625" height="93.07762557077625" width="192"><g><svg viewBox="0 0 192 93.07762557077625" height="93.07762557077625" width="192"><g><svg viewBox="0 0 192 93.07762557077625" height="93.07762557077625" width="192"><g id="textblocktransform"><svg viewBox="0 0 192 93.07762557077625" height="93.07762557077625" width="192" id="textblock"><g><svg viewBox="0 0 192 93.07762557077625" height="93.07762557077625" width="192"><g transform="matrix(1,0,0,1,0,0)"><svg width="192" viewBox="3.5 -31.75 65.69999694824219 31.850000381469727" height="93.07762557077625" data-palette-color="#233565"><path d="M30.55-3.8Q31.05-3.55 31.33-3.15 31.6-2.75 31.6-2L31.6-2Q31.6-1.05 30.88-0.48 30.15 0.1 29.2 0.1L29.2 0.1Q28.1 0.1 26.7-0.45L26.7-0.45Q23.9-1.7 21.23-5.08 18.55-8.45 14.8-14.8L14.8-14.8Q11.95-12.6 9-10.7L9-10.7Q9-9.65 9.08-8.28 9.15-6.9 9.15-6.25L9.15-6.25Q9.25-3.35 9.25-2.4L9.25-2.4Q9.25-1.55 8.7-0.78 8.15 0 7.05 0L7.05 0Q5.45 0 4.75-0.53 4.05-1.05 3.9-2.05L3.9-2.05Q3.5-4.55 3.5-6.85L3.5-6.85Q3.5-9.45 3.9-14.35L3.9-14.35Q4.3-19.05 4.3-21.4L4.3-21.4Q4.3-22.3 4.2-24L4.2-24Q4.15-25.35 3.9-26.5L3.9-26.5Q3.7-28.1 3.7-28.75L3.7-28.75Q3.7-30.35 4.4-31.05 5.1-31.75 6.55-31.75L6.55-31.75Q7.65-31.75 8.38-31.13 9.1-30.5 9.2-29.45L9.2-29.45Q9.45-25.2 9.45-22.9L9.45-22.9Q9.4-21.65 9.28-19.33 9.15-17 9.05-16.4L9.05-16.4Q10.75-17.35 15.73-21.88 20.7-26.4 22.8-29L22.8-29 23.45-29.75Q24.25-30.8 24.8-31.2 25.35-31.6 26.3-31.6L26.3-31.6Q27.25-31.6 28.03-30.98 28.8-30.35 28.8-29.5L28.8-29.5Q28.8-27.85 27.1-26.15L27.1-26.15Q22.95-21.85 18.8-18.15L18.8-18.15Q24.65-7.2 30.55-3.8L30.55-3.8ZM67.3-6.8Q68.25-6.8 68.72-6.08 69.2-5.35 69.2-4.5L69.2-4.5Q69.2-3.45 68.87-3.03 68.55-2.6 67.65-2.15L67.65-2.15Q65.55-1.15 62.45-0.55 59.35 0.05 55.8 0.05L55.8 0.05Q51.35 0.05 49.27-1.45 47.2-2.95 46.72-5.08 46.25-7.2 46.25-10.65L46.25-10.65Q46.25-14.35 46.55-17.93 46.85-21.5 47.6-27.05L47.6-27.05Q47.95-29.45 49.5-30.53 51.05-31.6 52.9-31.6L52.9-31.6Q54.45-31.6 57.95-31.7L57.95-31.7 62.3-31.75Q65-31.75 66.2-31.6L66.2-31.6Q67.7-31.3 68.42-30.93 69.15-30.55 69.15-29.65L69.15-29.65Q69.15-28.65 68.47-27.7 67.8-26.75 66.45-26.75L66.45-26.75Q64.9-26.75 62-26.95L62-26.95Q59.1-27.15 57.65-27.15L57.65-27.15Q56.4-27.15 55.2-27L55.2-27Q53.8-26.9 53.2-26.65 52.6-26.4 52.5-25.8L52.5-25.8Q51.8-20.65 51.8-18.2L51.8-18.2Q52.95-18.05 54.05-18.05L54.05-18.05Q55.45-18.05 57.05-18.2 58.65-18.35 59.1-18.4L59.1-18.4Q61.75-18.65 63.65-18.65L63.65-18.65Q64.75-18.65 65.32-18.25 65.9-17.85 65.9-17.15L65.9-17.15Q65.9-16.05 65.32-15.45 64.75-14.85 63.3-14.55L63.3-14.55Q61.55-14.2 58.97-14 56.4-13.8 53.95-13.8L53.95-13.8Q53.1-13.8 51.6-13.9L51.6-13.9Q51.45-10.85 51.45-8.25L51.45-8.25Q51.45-4.7 56.15-4.7L56.15-4.7Q58.65-4.7 60.3-5.05 61.95-5.4 64.1-6.05L64.1-6.05Q66.1-6.8 67.3-6.8L67.3-6.8Z" opacity="1" transform="matrix(1,0,0,1,0,0)" fill="#233565" class="wordmark-text-0" data-fill-palette-color="primary" id="text-0"></path></svg></g></svg></g></svg></g></svg></g><g></g></svg></g></svg></g></svg></g></svg></g><defs></defs></svg><rect width="320" height="360" fill="none" stroke="none" visibility="hidden"></rect></g></svg></g></svg>